<svg width="25" height="24" viewBox="0 0 25 24" fill="none" xmlns="http://www.w3.org/2000/svg">
<path fill-rule="evenodd" clip-rule="evenodd" d="M16.274 9.77243C17.1488 9.6704 17.8278 8.8995 17.8278 7.94721C17.8278 6.99492 17.1488 6.22402 16.274 6.12199V9.77243ZM16.4121 3.42383C18.9557 3.42383 20.9469 5.53247 20.9469 7.85652V15.6449C20.9469 16.7559 20.1988 17.7309 18.9672 17.7309C17.8854 17.7309 17.0106 16.8693 17.0106 15.8036C17.0106 15.0554 17.448 14.3638 18.1386 14.0577C18.1501 14.5339 18.3457 14.8967 18.668 15.1914C18.4148 15.2935 18.2422 15.4862 18.2422 15.8149C18.2422 16.1437 18.5529 16.4838 18.9327 16.4838C19.4391 16.4838 19.6233 16.087 19.6233 15.6562V8.33266C19.6233 6.33738 17.9659 4.70489 15.9403 4.70489H12.1767V7.39171C12.1767 9.38698 13.834 11.0195 15.8597 11.0195H18.0005V12.3232H15.8597C13.1089 12.3232 10.8531 10.1012 10.8531 7.39171V3.42383H16.4121ZM3.41797 17.8216V7.85652C3.41797 5.2944 5.40911 3.42383 7.96421 3.42383H10.105V4.70489H8.42458C6.39892 4.70489 4.74156 6.33738 4.74156 8.33266V16.6199H7.91817V15.2368C7.91817 13.831 9.08062 13.0828 10.5078 13.0828H13.1089C14.5361 13.0828 15.6986 13.831 15.6986 15.2368V17.8216H14.375V15.2368C14.375 14.5566 13.7995 14.3865 13.1089 14.3865H10.5078C9.81723 14.3865 9.24175 14.5452 9.24175 15.2368V17.8216H3.41797ZM15.6525 9.77243C14.7893 9.6704 14.1103 8.88816 14.1103 7.94721C14.1103 7.00626 14.7778 6.23535 15.6525 6.12199V9.77243Z" fill="#DAB37C"/>
<path fill-rule="evenodd" clip-rule="evenodd" d="M0 24H24.3655V0H0V24ZM1.58831 22.9003H2.90038L4.92605 21.1998L6.77907 22.9003H8.09115L4.92605 19.9868L1.58831 22.9003ZM9.01191 22.9003H10.324L12.177 21.1998L14.03 22.9003H15.3421L12.177 19.9868L9.01191 22.9003ZM16.2744 22.9003H17.5865L19.4395 21.1998L21.4651 22.9003H22.7772L19.4395 19.9868L16.2744 22.9003ZM23.2491 21.0071L20.74 18.8644H23.2491V1.09967H1.11642V18.8644H3.61397L1.11642 21.0071V22.2088L4.91454 18.8758L8.55153 22.2088L12.1885 18.8758L15.814 22.2088L19.451 18.8758L23.2491 22.2088V21.0071ZM15.814 21.0071L18.1504 18.8644H15.814H13.4776L15.814 21.0071ZM8.55153 21.0071L10.8879 18.8644H8.55153H6.21511L8.55153 21.0071Z" fill="#DAB37C"/>
</svg>
