<svg width="232" height="72" viewBox="0 0 232 72" fill="none" xmlns="http://www.w3.org/2000/svg">
<g clip-path="url(#clip0_28786_578)">
<path fill-rule="evenodd" clip-rule="evenodd" d="M34.4844 41.1132C34.6024 38.2335 38.2285 35.9189 42.6883 35.9189C46.928 35.9189 50.4125 38.009 50.8451 40.6952C51.4744 44.5735 36.0418 38.1561 34.4844 41.1132Z" fill="#7B2800"/>
<path fill-rule="evenodd" clip-rule="evenodd" d="M42.6795 34.7885C41.9087 34.7885 41.1221 34.8582 40.3512 34.9975L35.1284 23.9277H26.893C26.4289 23.9277 26.3581 24.0516 26.7121 24.4L37.8185 35.7407C37.4488 35.8955 37.0948 36.0735 36.7487 36.2748C35.8363 36.8012 34.9947 37.5056 34.389 38.3726L24.8557 34.5021L19.7273 39.588C18.6811 40.6253 18.8463 41.1053 20.388 41.1053H34.4677C34.4677 41.1594 34.4598 41.2059 34.4598 41.2601C34.4598 44.2094 38.1331 46.6014 42.6638 46.6014C47.1944 46.6014 50.8677 44.2094 50.8677 41.2601C50.8677 41.2059 50.8677 41.1594 50.8599 41.1053H64.9395C66.4812 41.1053 66.6464 40.6176 65.6003 39.588L60.4718 34.5021L50.9385 38.3726C50.3329 37.5056 49.4912 36.8012 48.5788 36.2748C48.2327 36.0735 47.8788 35.8955 47.5091 35.7407L58.6155 24.4C58.9694 24.0516 58.8987 23.9277 58.4346 23.9277H50.2306L45.0078 34.9975C44.2369 34.8504 43.4503 34.7885 42.6795 34.7885ZM17.6979 18.9889L16.5574 17.6575L18.5553 15.9234C19.0036 15.5364 19.3576 15.7531 19.6486 16.0938C19.9396 16.4421 20.1363 16.8756 19.7037 17.2549L17.6979 18.9889ZM15.6764 16.6434L14.6617 15.4667L16.6754 13.725C17.108 13.3534 17.4462 13.5314 17.7058 13.8256C17.9732 14.1275 18.1463 14.5146 17.69 14.9094L15.6764 16.6434ZM12.1132 15.877L16.8799 21.4583L21.1274 17.8432C22.3466 16.8059 22.0949 15.5054 21.4341 14.7004C20.9779 14.143 20.2307 13.8566 19.4205 14.1585L19.3576 14.2127C19.7273 13.5082 19.5385 12.7186 19.0272 12.2232C18.398 11.5962 17.3911 11.3098 16.2506 12.2929L12.1132 15.877ZM67.2442 10.7834L62.6663 16.6821L64.4991 17.9594L67.1498 14.5455L67.0318 19.1437C67.0161 19.6779 67.4173 20.2662 67.8735 20.6223L68.6994 21.2648L73.1907 15.4822L71.4445 14.0965L68.7938 17.5104L68.8724 12.7496C68.8803 12.3548 68.6679 11.8749 68.3297 11.6194L67.2442 10.7834ZM61.9742 7.80303L59.8032 12.9896C59.6459 13.3611 59.2605 13.1908 58.938 13.0592L57.5772 12.5019C57.2547 12.3703 56.8536 12.2155 57.003 11.8439L59.1189 6.62638L57.0581 5.7826L54.9815 10.9072C54.4152 12.3084 55.2961 12.9973 56.6805 13.5702L58.8279 14.4526C60.2201 15.0255 61.3134 15.1493 61.8955 13.7482L64.0271 8.65455L61.9742 7.80303ZM49.2474 8.3991L47.3518 8.09719C45.582 7.81077 45.2044 6.68831 45.3774 5.651C45.5505 4.6137 46.2899 3.66928 48.0203 3.94796L52.4959 4.66788C52.4802 4.80722 52.4645 6.0071 50.7655 5.73616L48.3822 5.3491C47.8158 5.25621 47.6428 5.63552 47.5877 6.03032C47.5327 6.42512 47.5877 6.83539 48.1305 6.92829L50.2621 7.2689C52.024 7.54758 52.4252 8.73971 52.2364 9.8312C52.0555 10.9227 51.2925 11.9213 49.444 11.6271L44.583 10.8375C44.5987 10.6982 44.6066 9.49833 46.3135 9.76927L48.9564 10.195C49.6092 10.3034 49.8531 9.87765 49.9239 9.42866C50.0025 8.98742 49.9081 8.50747 49.2474 8.3991ZM39.6433 3.70799L39.895 11.0543L42.121 10.9769L41.8693 3.63058L39.6433 3.70799ZM28.0335 5.89872L29.7404 13.0592L31.9034 12.5174L30.8966 8.3062L34.3418 11.2401C34.743 11.5807 35.4509 11.6194 36.0172 11.4955L37.0948 11.2556L35.388 4.11053L33.217 4.64466L34.2238 8.85582L30.5663 5.85227C30.2595 5.60456 29.764 5.4807 29.3471 5.58134L28.0335 5.89872ZM21.733 8.63133L24.8951 15.2577L26.9008 14.2901L23.7388 7.66369L21.733 8.63133ZM24.9895 57.2532C23.7231 56.6416 22.4016 56.3475 21.7016 57.7564L19.9868 61.2089C19.2868 62.6178 20.3329 63.477 21.5915 64.0886L23.5343 65.0253C24.8007 65.6368 26.1221 65.931 26.8143 64.5221L28.529 61.0696C29.2291 59.6607 28.1829 58.8014 26.9244 58.1899L24.9895 57.2532ZM23.5028 58.4221C23.6916 58.0428 24.1871 58.2905 24.486 58.4376L26.2873 59.3123C26.5862 59.4594 27.0817 59.6916 26.9008 60.071L25.0209 63.8564C24.8321 64.2357 24.3366 63.988 24.0377 63.8409L22.2364 62.9661C21.9375 62.819 21.442 62.5868 21.6308 62.2075L23.5028 58.4221ZM55.4377 66.2329C55.7524 67.0457 56.067 67.2934 57.1367 66.8909L61.4393 65.2652C61.0932 64.406 60.6213 64.197 59.465 64.6382L57.2311 65.482L56.5783 63.7867C57.5929 63.2526 60.4797 63.0203 59.7403 60.8605C59.5515 61.4953 56.3502 61.534 56.2636 62.9816L55.4063 60.7599L57.6401 59.9161C58.7964 59.4826 59.0166 59.0182 58.6941 58.1434L54.3916 59.7691C53.3218 60.1716 53.2511 60.5664 53.5657 61.3792L55.4377 66.2329ZM66.67 61.0928C67.2206 61.774 67.5982 61.9133 68.4949 61.2089L72.0974 58.3602C71.4996 57.6403 70.9883 57.5938 70.0208 58.3602L68.1566 59.8387L67.0161 58.4221C67.8184 57.6093 70.4928 56.5178 69.1241 54.6831C69.1398 55.3411 66.1037 56.3475 66.4734 57.7486L64.9789 55.8908L66.8431 54.42C67.8105 53.6536 67.8735 53.1504 67.2993 52.415L63.6968 55.256C62.8079 55.9604 62.8551 56.363 63.4057 57.0442L66.67 61.0928ZM43.8043 69.0429L45.755 68.9423L45.5898 65.8536C46.7225 65.6523 49.5384 66.3103 49.507 64.0267C49.1294 64.5685 46.0775 63.6396 45.5426 64.9866L45.4168 62.6178L47.8001 62.4939C49.035 62.432 49.389 62.0527 49.3497 61.1315L44.7482 61.3715C43.6077 61.4334 43.4189 61.7895 43.4582 62.6565L43.8043 69.0429ZM32.454 68.052L34.3811 68.3539L34.8767 65.2962C36.0251 65.3349 38.6444 66.558 39.0927 64.3208C38.6129 64.7775 35.8206 63.2371 35.0104 64.4447L35.388 62.0991L37.7477 62.4707C38.9747 62.6642 39.3916 62.3701 39.5568 61.4566L35.0025 60.7444C33.8699 60.5664 33.6103 60.876 33.4766 61.7353L32.454 68.052ZM14.9213 51.6719C15.2123 51.3622 15.6135 51.7415 15.8495 51.966L16.8799 52.9259C17.7844 53.7697 18.2957 53.7542 18.9486 53.0885L16.6911 50.9829C15.6686 50.0307 14.4887 49.365 13.4032 50.5107L10.7367 53.313C9.65126 54.4587 10.3828 55.5811 11.4132 56.5333L13.6707 58.6389C14.3078 57.9576 14.2842 57.4467 13.3796 56.6029L12.3492 55.643C12.1132 55.4186 11.7042 55.047 11.9953 54.7373L14.9213 51.6719ZM42.6795 12.8967C56.6412 12.8967 68.3769 20.1811 71.7985 30.0587L81.8902 25.9559C81.8273 25.7856 81.7644 25.6231 81.7014 25.4527C78.9406 18.3 73.584 12.4632 67.0869 8.42232C59.8032 3.89377 51.2532 1.67208 42.6795 1.67208C34.1137 1.67208 25.5558 3.89377 18.2721 8.42232C11.775 12.4632 6.41058 18.3 3.65757 25.4527C3.59464 25.6231 3.53172 25.7856 3.46879 25.9559L13.5605 30.0587C16.9821 20.1811 28.7178 12.8967 42.6795 12.8967ZM42.6795 0C66.2531 0 85.359 16.117 85.359 36.0039C85.359 55.883 66.2531 72.0077 42.6795 72.0077C19.1059 72 0 55.883 0 36.0039C0 16.117 19.1059 0 42.6795 0ZM42.6795 13.7327C36.2453 13.7327 29.6932 15.3351 24.2107 18.7257C19.5857 21.5977 15.6764 25.8166 14.119 31.0883C13.6471 32.6829 13.4032 34.3318 13.4032 35.9961C13.4032 37.6605 13.6471 39.3093 14.119 40.9117C15.6843 46.1834 19.5857 50.4023 24.2107 53.2743C29.6932 56.6726 36.2532 58.2673 42.6795 58.2673C49.1137 58.2673 55.6737 56.6649 61.1483 53.2743C65.7733 50.4023 69.6826 46.1834 71.24 40.9117C71.7119 39.3171 71.9558 37.6682 71.9558 35.9961C71.9558 34.3318 71.7119 32.6829 71.24 31.0883C69.6747 25.8166 65.7733 21.5977 61.1483 18.7257C55.6658 15.3274 49.1058 13.7327 42.6795 13.7327ZM40.9254 55.4495L17.8788 43.1025C16.3765 42.2974 16.2428 40.904 17.8788 39.2861L23.8017 33.4183V24.4928C23.8017 22.9059 24.2737 22.4028 25.9097 22.4028H34.9003L41.3266 16.055C42.121 15.2732 43.238 15.2732 44.0324 16.055L50.4587 22.4028H59.4493C61.0853 22.4028 61.5573 22.9059 61.5573 24.4928V33.4029L67.4802 39.2706C69.1163 40.8962 68.9747 42.2896 67.4802 43.087L44.4336 55.4495C43.002 56.2081 42.3491 56.2081 40.9254 55.4495Z" fill="#007A5E"/>
<path d="M225.864 64.8394C225.895 64.7233 225.958 64.6149 226.045 64.5065C226.131 64.3982 226.241 64.3053 226.383 64.2124C226.525 64.1195 226.627 64.0575 226.698 64.0188C226.768 63.9801 226.871 63.9337 227.004 63.864L227.02 63.8176C226.871 63.7402 226.776 63.6318 226.713 63.5079C226.658 63.3763 226.65 63.237 226.69 63.0822C226.729 62.9428 226.871 62.7803 227.115 62.5945C227.358 62.4164 227.602 62.2771 227.838 62.1919L227.846 62.1532C227.689 62.1068 227.539 61.952 227.406 61.681C227.272 61.4101 227.248 61.1082 227.335 60.7831C227.453 60.3418 227.752 59.9625 228.216 59.6219C228.68 59.289 229.152 59.1187 229.616 59.1187C230.064 59.1187 230.418 59.2348 230.678 59.4593L231.881 59.3742L231.952 59.498L231.574 60.0941H231.488L230.874 59.8773L230.851 59.9702C230.906 60.2334 230.898 60.4812 230.835 60.7211C230.749 61.0308 230.575 61.3172 230.308 61.5727C230.041 61.8281 229.75 62.0139 229.443 62.1455C229.128 62.2693 228.829 62.3313 228.546 62.3313C228.349 62.3313 228.192 62.3158 228.066 62.2771C227.83 62.4629 227.697 62.6254 227.665 62.7493C227.634 62.8732 227.673 62.9738 227.791 63.0357C227.909 63.1054 228.169 63.1364 228.562 63.1364H229.309C229.537 63.1364 229.726 63.1518 229.883 63.1751C230.041 63.206 230.182 63.2525 230.316 63.3221C230.45 63.3918 230.536 63.5079 230.575 63.655C230.615 63.8021 230.599 63.9956 230.544 64.2201C230.458 64.5298 230.261 64.8239 229.938 65.1026C229.616 65.3813 229.238 65.6135 228.798 65.7761C228.365 65.9464 227.94 66.0315 227.531 66.0315C227.264 66.0315 227.02 66.0083 226.808 65.9696C226.595 65.9309 226.399 65.8612 226.234 65.7761C226.068 65.6832 225.95 65.5593 225.88 65.3968C225.809 65.2574 225.809 65.0639 225.864 64.8394ZM226.91 64.553C226.745 65.1723 227.099 65.4819 227.972 65.4819C228.365 65.4819 228.696 65.4045 228.971 65.2497C229.246 65.0949 229.435 64.8471 229.529 64.5143C229.592 64.282 229.537 64.135 229.356 64.0653C229.175 63.9956 228.829 63.9569 228.31 63.9569H227.358C227.351 63.9647 227.343 63.9647 227.327 63.9724C227.311 63.9801 227.288 63.9956 227.24 64.0266C227.201 64.0575 227.162 64.0885 227.122 64.135C227.083 64.1737 227.044 64.2356 227.004 64.3053C226.973 64.3749 226.942 64.4601 226.91 64.553ZM228.247 60.6824C228.153 61.0385 228.169 61.3249 228.294 61.5649C228.42 61.7971 228.593 61.9133 228.814 61.9133C229.348 61.9133 229.718 61.5572 229.915 60.8372C230.001 60.5121 230.001 60.218 229.915 59.9393C229.828 59.6683 229.647 59.529 229.38 59.529C229.105 59.529 228.876 59.6296 228.68 59.8386C228.491 60.0399 228.349 60.3186 228.247 60.6824ZM219.469 63.9724L219.634 63.5776L220.523 63.3531L221.42 60.0709L220.649 59.7922L220.814 59.3819L222.505 59.1729L222.568 59.2735L222.293 59.9625H222.348C222.623 59.7148 222.93 59.5135 223.26 59.351C223.591 59.1884 223.913 59.111 224.236 59.111C224.668 59.111 224.959 59.2426 225.109 59.5135C225.266 59.7767 225.274 60.156 225.14 60.6437L224.401 63.3531L225.14 63.5466L224.967 63.9724H222.497L222.663 63.5776L223.481 63.3531L224.165 60.8527C224.259 60.5199 224.236 60.2644 224.11 60.1018C223.976 59.9393 223.772 59.8541 223.481 59.8541C223.04 59.8541 222.639 60.0089 222.269 60.3186L221.443 63.3531L222.214 63.5389L222.018 63.9646H219.469V63.9724ZM216.063 58.6543L217.385 57.5705L217.754 57.4776L218.541 58.6001L218.171 58.8323L217.353 58.1666H217.282L216.252 58.8323L216.063 58.6543ZM214.16 61.6733C214.27 61.2785 214.435 60.9147 214.655 60.5818C214.883 60.2489 215.135 59.978 215.41 59.769C215.693 59.56 215.992 59.3897 216.307 59.2735C216.622 59.1574 216.936 59.0955 217.251 59.0955C217.92 59.0955 218.391 59.32 218.651 59.7767C218.918 60.2334 218.942 60.8372 218.738 61.5881C218.533 62.3313 218.148 62.9351 217.581 63.4073C217.015 63.8795 216.401 64.1117 215.749 64.1117C215.041 64.1117 214.553 63.8795 214.278 63.4228C214.01 62.9738 213.963 62.3855 214.16 61.6733ZM215.245 61.2862C215.166 61.5804 215.119 61.8591 215.096 62.1223C215.072 62.3855 215.096 62.6332 215.135 62.8577C215.182 63.0822 215.292 63.268 215.45 63.3996C215.607 63.5312 215.819 63.6008 216.079 63.6008C216.441 63.6008 216.763 63.446 217.046 63.1286C217.33 62.819 217.526 62.4551 217.644 62.0371C217.723 61.7507 217.77 61.4798 217.786 61.2088C217.809 60.9379 217.794 60.6902 217.754 60.4502C217.715 60.2102 217.613 60.0244 217.463 59.8773C217.314 59.7303 217.109 59.6606 216.858 59.6606C216.59 59.6606 216.346 59.738 216.126 59.8928C215.898 60.0477 215.717 60.2489 215.568 60.4812C215.434 60.7211 215.324 60.9921 215.245 61.2862ZM208.992 61.7275C209.102 61.3404 209.259 60.9766 209.487 60.6437C209.708 60.3108 209.959 60.0322 210.235 59.8077C210.51 59.5832 210.809 59.4129 211.116 59.289C211.422 59.1652 211.737 59.1032 212.036 59.1032C212.469 59.1032 212.775 59.1807 212.956 59.3432C213.137 59.5058 213.2 59.6993 213.137 59.9315C213.09 60.0941 212.996 60.2257 212.846 60.3263C212.697 60.427 212.508 60.4889 212.288 60.4966C212.272 60.3805 212.248 60.2799 212.225 60.2025C212.201 60.1173 212.17 60.0322 212.122 59.9315C212.075 59.8309 212.012 59.7535 211.934 59.6993C211.855 59.6451 211.761 59.6219 211.643 59.6219C211.32 59.6219 211.013 59.769 210.738 60.0631C210.463 60.3573 210.258 60.7521 210.125 61.2398C210.062 61.4798 210.03 61.7197 210.022 61.9752C210.022 62.2306 210.046 62.4706 210.109 62.7029C210.172 62.9351 210.29 63.1286 210.463 63.2757C210.644 63.4228 210.864 63.5002 211.131 63.5002C211.375 63.5002 211.588 63.4692 211.769 63.415C211.949 63.3608 212.138 63.2757 212.327 63.1751L212.382 63.4924C212.178 63.6782 211.902 63.833 211.54 63.9646C211.186 64.0962 210.832 64.1659 210.494 64.1659C209.849 64.1659 209.393 63.9337 209.126 63.4615C208.85 62.9661 208.811 62.4009 208.992 61.7275ZM199.938 63.9724L200.111 63.5466L201.008 63.3454L202.479 57.9343L201.677 57.6402L201.858 57.2299L203.478 57.1138L203.58 57.2454L202.998 59.3897L202.754 59.9625H202.809C203.478 59.3974 204.099 59.1187 204.658 59.1187C204.862 59.1187 205.028 59.1419 205.169 59.1961C205.311 59.2426 205.421 59.3277 205.523 59.4438C205.618 59.56 205.673 59.7225 205.673 59.947C205.68 60.1638 205.641 60.4347 205.555 60.7521L204.839 63.3686L205.586 63.5621L205.405 63.9879H202.935L203.108 63.5853L203.911 63.3686L204.611 60.8527C204.705 60.5044 204.681 60.2489 204.54 60.0941C204.398 59.9393 204.194 59.8619 203.934 59.8619C203.541 59.8619 203.14 60.0244 202.747 60.3418L201.928 63.3608L202.676 63.5544L202.495 63.9879H199.938V63.9724ZM193.394 63.9724L193.559 63.5776L194.448 63.3531L195.345 60.0709L194.574 59.7922L194.739 59.3819L196.43 59.1729L196.493 59.2735L196.218 59.9625H196.273C196.548 59.7148 196.855 59.5135 197.185 59.351C197.516 59.1884 197.838 59.111 198.161 59.111C198.593 59.111 198.884 59.2426 199.034 59.5135C199.191 59.7767 199.199 60.156 199.065 60.6437L198.326 63.3531L199.065 63.5466L198.892 63.9724H196.422L196.588 63.5776L197.406 63.3531L198.09 60.8527C198.184 60.5199 198.161 60.2644 198.035 60.1018C197.901 59.9393 197.697 59.8541 197.406 59.8541C196.965 59.8541 196.564 60.0089 196.194 60.3186L195.368 63.3531L196.139 63.5389L195.943 63.9646H193.394V63.9724ZM191.711 58.8246L190.531 57.5473L191.137 57.1447L191.986 58.5768L191.711 58.8246ZM188.226 63.0667C188.281 62.8654 188.384 62.6641 188.533 62.4784C188.683 62.2926 188.879 62.1223 189.115 61.9597C189.351 61.7971 189.658 61.6655 190.02 61.5572C190.382 61.4488 190.783 61.3791 191.223 61.3482L191.302 61.054C191.357 60.8605 191.388 60.6824 191.404 60.5199C191.42 60.3573 191.404 60.2025 191.373 60.0631C191.341 59.9238 191.27 59.8077 191.16 59.7303C191.05 59.6529 190.909 59.6142 190.728 59.6142C190.625 59.6142 190.539 59.6219 190.468 59.6451C190.397 59.6683 190.334 59.6993 190.279 59.7535C190.224 59.8077 190.177 59.8696 190.13 59.9548C190.083 60.0399 190.035 60.1405 189.988 60.2567C189.941 60.3728 189.886 60.5199 189.831 60.6824C189.815 60.7211 189.799 60.7521 189.799 60.7676C189.721 60.7676 189.658 60.7676 189.603 60.7598C189.556 60.7521 189.493 60.7444 189.414 60.7211C189.343 60.6979 189.288 60.6747 189.249 60.636C189.21 60.5973 189.186 60.5431 189.17 60.4734C189.155 60.396 189.162 60.3108 189.186 60.2102C189.233 60.0244 189.39 59.8464 189.642 59.6683C189.894 59.498 190.185 59.3587 190.5 59.2581C190.814 59.1574 191.105 59.111 191.357 59.111C191.837 59.111 192.151 59.2426 192.293 59.5058C192.435 59.769 192.419 60.1947 192.269 60.7676L191.734 62.7261C191.664 62.9815 191.656 63.1518 191.711 63.2447C191.758 63.3376 191.908 63.4073 192.151 63.446L192.411 63.4924L192.214 63.9569C192.183 63.9569 192.081 63.9801 191.9 64.0111C191.719 64.0421 191.569 64.0575 191.436 64.0575C191.145 64.0575 190.956 63.9801 190.854 63.8331C190.759 63.686 190.736 63.5157 190.783 63.3299L190.806 63.2525H190.743C190.673 63.3376 190.594 63.4228 190.5 63.5079C190.405 63.5931 190.287 63.6782 190.138 63.7789C189.996 63.8718 189.823 63.9492 189.626 64.0034C189.43 64.0575 189.225 64.0885 189.013 64.0885C188.714 64.0885 188.486 63.9956 188.329 63.8098C188.171 63.6395 188.14 63.3841 188.226 63.0667ZM189.249 62.8112C189.21 62.966 189.225 63.1054 189.304 63.237C189.375 63.3686 189.508 63.4383 189.697 63.4383C189.87 63.4383 190.067 63.3918 190.264 63.2834C190.468 63.1828 190.641 63.0744 190.783 62.9506L191.137 61.6578C190.539 61.7739 190.091 61.921 189.799 62.1068C189.508 62.3003 189.328 62.5403 189.249 62.8112ZM181.336 63.9724L181.509 63.5466L182.406 63.3454L183.877 57.9343L183.074 57.6402L183.255 57.2299L184.876 57.1138L184.978 57.2454L184.396 59.3897L184.152 59.9625H184.207C184.876 59.3974 185.497 59.1187 186.055 59.1187C186.26 59.1187 186.425 59.1419 186.567 59.1961C186.708 59.2426 186.818 59.3277 186.921 59.4438C187.015 59.56 187.07 59.7225 187.07 59.947C187.078 60.1638 187.039 60.4347 186.952 60.7521L186.236 63.3686L186.984 63.5621L186.803 63.9879H184.333L184.506 63.5853L185.308 63.3686L186.008 60.8527C186.103 60.5044 186.079 60.2489 185.937 60.0941C185.796 59.9393 185.591 59.8619 185.34 59.8619C184.946 59.8619 184.545 60.0244 184.152 60.3418L183.326 63.3608L184.073 63.5544L183.892 63.9879H181.336V63.9724ZM178.15 59.7457L178.229 59.4516C178.795 59.0955 179.37 58.6388 179.952 58.0969H180.243L179.92 59.2813H181.47L181.289 59.7535H179.779L179.086 62.2384C178.976 62.6409 178.961 62.9119 179.047 63.0667C179.126 63.2215 179.314 63.2989 179.605 63.2989C179.723 63.2989 179.857 63.2757 179.999 63.2215C180.14 63.1751 180.258 63.1209 180.345 63.0667L180.479 62.9893L180.51 63.2834C180.266 63.5311 180.007 63.7247 179.708 63.8718C179.417 64.0111 179.11 64.0808 178.803 64.0808C178.622 64.0808 178.473 64.0575 178.355 64.0034C178.237 63.9569 178.135 63.8795 178.048 63.7711C177.969 63.6627 177.93 63.5002 177.922 63.2989C177.922 63.0976 177.962 62.8422 178.048 62.5558L178.843 59.738H178.15V59.7457ZM168.664 63.9724L168.829 63.5776L169.718 63.3531L170.615 60.0709L169.844 59.7922L170.009 59.3819L171.7 59.1729L171.763 59.2735L171.488 59.9625H171.543C171.818 59.7148 172.125 59.5135 172.456 59.351C172.786 59.1884 173.108 59.111 173.431 59.111C173.864 59.111 174.155 59.2426 174.304 59.5135C174.461 59.7767 174.469 60.156 174.335 60.6437L173.596 63.3531L174.335 63.5466L174.162 63.9724H171.693L171.858 63.5776L172.676 63.3531L173.36 60.8527C173.454 60.5199 173.431 60.2644 173.305 60.1018C173.179 59.9393 172.967 59.8541 172.676 59.8541C172.235 59.8541 171.834 60.0089 171.464 60.3186L170.639 63.3531L171.409 63.5389L171.213 63.9646H168.664V63.9724ZM168.169 57.6015L169.797 56.1694L170.19 56.5719L168.31 57.8492L168.169 57.6015ZM165.785 58.6465L167.115 57.5628L167.477 57.4699L168.263 58.5923L167.901 58.8168L167.083 58.1511H167.012L165.974 58.8323L165.785 58.6465ZM164.094 61.6578C164.204 61.2707 164.362 60.9147 164.59 60.5818C164.818 60.2567 165.062 59.9857 165.337 59.7767C165.612 59.5677 165.896 59.4051 166.194 59.289C166.493 59.1729 166.776 59.1187 167.044 59.1187C167.469 59.1187 167.775 59.2658 167.972 59.5677C168.169 59.8696 168.192 60.2876 168.043 60.8372C167.98 61.0617 167.886 61.294 167.768 61.5417L165.101 61.5727C165.062 61.7507 165.038 61.921 165.038 62.0913C165.03 62.2616 165.054 62.4242 165.093 62.5945C165.133 62.757 165.195 62.9041 165.274 63.0202C165.353 63.1441 165.471 63.2447 165.612 63.3144C165.762 63.3918 165.935 63.4228 166.131 63.4228H166.163C166.32 63.4228 166.438 63.415 166.533 63.415C166.619 63.4073 166.753 63.3841 166.918 63.3376C167.083 63.2912 167.264 63.2215 167.461 63.1364L167.5 63.4228C167.217 63.6473 166.902 63.8253 166.556 63.9492C166.21 64.073 165.856 64.1427 165.502 64.1427C165.235 64.1427 164.999 64.0885 164.786 63.9879C164.574 63.8795 164.393 63.7247 164.252 63.5311C164.11 63.3299 164.023 63.0744 163.992 62.7493C163.945 62.4087 163.984 62.0526 164.094 61.6578ZM165.227 61.1469L166.981 61.023C167.028 60.9379 167.075 60.814 167.115 60.6515C167.296 59.9857 167.138 59.6451 166.635 59.6451C166.391 59.6451 166.131 59.7767 165.864 60.0322C165.597 60.2876 165.384 60.6669 165.227 61.1469ZM160.799 58.8013L160.995 58.3291L163.52 58.2362L163.323 58.7162L160.799 58.8013ZM157.747 61.8126C157.849 61.4333 158.022 61.0695 158.258 60.7289C158.494 60.3805 158.761 60.0941 159.052 59.8619C159.343 59.6296 159.65 59.4438 159.98 59.3045C160.303 59.1652 160.602 59.1032 160.885 59.1032C161.066 59.1032 161.239 59.1265 161.404 59.1729C161.569 59.2194 161.687 59.2735 161.766 59.3432H161.805L161.923 58.6543L162.112 57.973L161.357 57.6789L161.546 57.2763L163.111 57.1447L163.19 57.2763L161.679 62.819C161.64 62.9506 161.624 63.0589 161.624 63.1364C161.624 63.2138 161.648 63.2834 161.703 63.3299C161.758 63.3763 161.805 63.4073 161.837 63.4228C161.868 63.4383 161.947 63.4537 162.057 63.4847C162.073 63.4847 162.089 63.4924 162.089 63.4924L162.324 63.5466L162.144 63.9956C161.853 64.0653 161.569 64.0963 161.31 64.0963C161.042 64.0963 160.861 64.0188 160.759 63.8718C160.657 63.7247 160.641 63.5311 160.704 63.2989L160.712 63.2602H160.665C160.106 63.8098 159.524 64.0808 158.919 64.0808C158.407 64.0808 158.03 63.8795 157.802 63.4847C157.574 63.0822 157.558 62.5248 157.747 61.8126ZM158.808 61.472C158.643 62.0913 158.62 62.5635 158.761 62.8964C158.895 63.2292 159.139 63.3996 159.501 63.3996C159.713 63.3996 159.941 63.3454 160.193 63.2447C160.437 63.1441 160.633 63.028 160.775 62.9041L161.467 60.3728C161.388 60.1483 161.255 59.9702 161.066 59.8386C160.877 59.707 160.681 59.6374 160.492 59.6374C160.083 59.6374 159.745 59.7999 159.461 60.1405C159.178 60.4657 158.958 60.9147 158.808 61.472ZM148.701 63.9724L148.866 63.5776L149.755 63.3531L150.652 60.0709L149.881 59.7922L150.046 59.3819L151.737 59.1729L151.8 59.2735L151.525 59.9625H151.58C151.855 59.7148 152.162 59.5135 152.492 59.351C152.823 59.1884 153.145 59.111 153.468 59.111C153.9 59.111 154.191 59.2426 154.341 59.5135C154.498 59.7767 154.506 60.156 154.372 60.6437L153.633 63.3531L154.372 63.5466L154.199 63.9724H151.729L151.895 63.5776L152.713 63.3531L153.397 60.8527C153.491 60.5199 153.468 60.2644 153.342 60.1018C153.208 59.9393 153.004 59.8541 152.713 59.8541C152.272 59.8541 151.871 60.0089 151.509 60.3186L150.683 63.3531L151.454 63.5389L151.257 63.9646H148.701V63.9724ZM148.198 57.8414L147.018 56.5642L147.623 56.1616L148.473 57.5937L148.198 57.8414ZM145.287 58.6465L146.609 57.5628L146.971 57.4699L147.757 58.5923L147.395 58.8168L146.577 58.1511H146.506L145.476 58.8323L145.287 58.6465ZM143.384 61.6733C143.494 61.2785 143.659 60.9147 143.879 60.5818C144.107 60.2489 144.359 59.978 144.634 59.769C144.918 59.56 145.216 59.3897 145.531 59.2735C145.846 59.1574 146.16 59.0955 146.467 59.0955C147.136 59.0955 147.608 59.32 147.867 59.7767C148.135 60.2334 148.158 60.8372 147.954 61.5881C147.749 62.3313 147.364 62.9351 146.798 63.4073C146.231 63.8795 145.618 64.1117 144.965 64.1117C144.257 64.1117 143.769 63.8795 143.494 63.4228C143.234 62.9738 143.195 62.3855 143.384 61.6733ZM144.469 61.2862C144.391 61.5804 144.343 61.8591 144.32 62.1223C144.304 62.3855 144.312 62.6332 144.367 62.8577C144.414 63.0822 144.516 63.268 144.682 63.3996C144.839 63.5312 145.051 63.6008 145.311 63.6008C145.673 63.6008 145.995 63.446 146.278 63.1286C146.562 62.819 146.758 62.4551 146.876 62.0371C146.955 61.7507 147.002 61.4798 147.018 61.2088C147.041 60.9379 147.026 60.6902 146.986 60.4502C146.947 60.2102 146.845 60.0244 146.695 59.8773C146.546 59.7303 146.341 59.6606 146.09 59.6606C145.822 59.6606 145.578 59.738 145.358 59.8928C145.13 60.0477 144.949 60.2489 144.8 60.4812C144.666 60.7211 144.548 60.9921 144.469 61.2862ZM137.351 59.7457L137.547 59.32L139.05 59.2039L139.152 59.3355L138.358 62.2616C138.161 62.9893 138.342 63.3608 138.9 63.3608C139.301 63.3608 139.679 63.2215 140.025 62.9428L140.804 60.0786L139.994 59.8541L140.182 59.3587L141.834 59.2116L141.913 59.3432L140.969 62.819C140.93 62.9506 140.914 63.0589 140.914 63.1364C140.914 63.2215 140.945 63.2834 140.993 63.3299C141.04 63.3763 141.095 63.4073 141.142 63.4305C141.189 63.446 141.268 63.4692 141.378 63.5002L141.614 63.5544L141.441 64.0034C141.134 64.073 140.843 64.104 140.584 64.104C140.316 64.104 140.135 64.0343 140.041 63.8872C139.946 63.7402 139.923 63.5544 139.986 63.3221L140.002 63.2757H139.931C139.388 63.8331 138.798 64.104 138.137 64.104C137.319 64.104 137.06 63.5853 137.343 62.5403L138.019 60.0554L137.351 59.7457ZM130.217 64.8394C130.248 64.7233 130.311 64.6149 130.397 64.5065C130.484 64.3982 130.594 64.3053 130.736 64.2124C130.877 64.1195 130.98 64.0575 131.05 64.0188C131.121 63.9801 131.223 63.9337 131.357 63.864L131.373 63.8176C131.223 63.7402 131.121 63.6318 131.066 63.5079C131.011 63.3763 131.003 63.237 131.042 63.0822C131.082 62.9428 131.223 62.7803 131.467 62.5945C131.711 62.4164 131.955 62.2771 132.191 62.1919L132.199 62.1532C132.041 62.1068 131.892 61.952 131.758 61.681C131.624 61.4101 131.601 61.1082 131.687 60.7831C131.805 60.3418 132.104 59.9625 132.568 59.6219C133.032 59.289 133.504 59.1187 133.968 59.1187C134.417 59.1187 134.771 59.2348 135.03 59.4593L136.234 59.3742L136.305 59.498L135.927 60.0941H135.841L135.227 59.8773L135.203 59.9702C135.258 60.2334 135.251 60.4812 135.188 60.7211C135.101 61.0308 134.928 61.3172 134.661 61.5727C134.393 61.8281 134.102 62.0139 133.795 62.1455C133.481 62.2693 133.182 62.3313 132.899 62.3313C132.702 62.3313 132.545 62.3158 132.419 62.2771C132.183 62.4629 132.049 62.6254 132.018 62.7493C131.986 62.8732 132.026 62.9738 132.144 63.0357C132.262 63.1054 132.521 63.1364 132.914 63.1364H133.662C133.89 63.1364 134.079 63.1518 134.236 63.1751C134.393 63.206 134.535 63.2525 134.669 63.3221C134.802 63.3918 134.889 63.5079 134.928 63.655C134.967 63.8021 134.952 63.9956 134.889 64.2201C134.802 64.5298 134.606 64.8239 134.283 65.1026C133.961 65.3813 133.583 65.6135 133.143 65.7761C132.71 65.9464 132.285 66.0315 131.876 66.0315C131.609 66.0315 131.365 66.0083 131.153 65.9696C130.94 65.9309 130.744 65.8612 130.578 65.7761C130.413 65.6832 130.295 65.5593 130.224 65.3968C130.161 65.2574 130.161 65.0639 130.217 64.8394ZM131.263 64.553C131.097 65.1723 131.451 65.4819 132.325 65.4819C132.718 65.4819 133.048 65.4045 133.323 65.2497C133.599 65.0949 133.788 64.8471 133.882 64.5143C133.945 64.282 133.89 64.135 133.709 64.0653C133.528 63.9956 133.182 63.9569 132.663 63.9569H131.711C131.703 63.9647 131.695 63.9647 131.68 63.9724C131.664 63.9801 131.64 63.9956 131.593 64.0266C131.554 64.0575 131.514 64.0885 131.475 64.135C131.436 64.1737 131.396 64.2356 131.357 64.3053C131.326 64.3749 131.294 64.4601 131.263 64.553ZM132.6 60.6824C132.505 61.0385 132.521 61.3249 132.647 61.5649C132.773 61.7971 132.946 61.9133 133.166 61.9133C133.701 61.9133 134.071 61.5572 134.267 60.8372C134.354 60.5121 134.354 60.218 134.267 59.9393C134.181 59.6683 134 59.529 133.733 59.529C133.457 59.529 133.229 59.6296 133.032 59.8386C132.844 60.0399 132.702 60.3186 132.6 60.6824ZM123.83 63.9724L123.995 63.5776L124.884 63.3531L125.78 60.0709L125.009 59.7922L125.175 59.3819L126.866 59.1729L126.929 59.2735L126.653 59.9625H126.708C126.984 59.7148 127.29 59.5135 127.621 59.351C127.951 59.1884 128.274 59.111 128.596 59.111C129.029 59.111 129.32 59.2426 129.469 59.5135C129.627 59.7767 129.634 60.156 129.501 60.6437L128.761 63.3531L129.501 63.5466L129.328 63.9724H126.858L127.023 63.5776L127.841 63.3531L128.525 60.8527C128.62 60.5199 128.596 60.2644 128.47 60.1018C128.344 59.9393 128.132 59.8541 127.841 59.8541C127.401 59.8541 126.999 60.0089 126.63 60.3186L125.804 63.3531L126.575 63.5389L126.378 63.9646H123.83V63.9724ZM118.308 63.9724L118.489 63.5466L119.37 63.3454L120.274 60.0244L119.527 59.7303L119.708 59.32L121.281 59.1961L121.383 59.3277L120.29 63.3454L121.116 63.5389L120.935 63.9724H118.308ZM120.715 57.5163C120.762 57.346 120.864 57.2067 121.029 57.0906C121.187 56.9744 121.36 56.9125 121.533 56.9125C121.714 56.9125 121.855 56.9744 121.958 57.0906C122.06 57.2067 122.083 57.3537 122.036 57.5241C121.989 57.7021 121.879 57.8569 121.714 57.9885C121.548 58.1201 121.368 58.182 121.187 58.182C121.006 58.182 120.872 58.1124 120.778 57.9885C120.683 57.8569 120.668 57.7021 120.715 57.5163ZM117.049 59.56C117.427 59.529 117.663 59.4825 117.773 59.4284C117.875 59.3742 117.954 59.289 117.985 59.1884C118.017 59.0955 118.009 59.0181 117.962 58.9484C117.915 58.8787 117.844 58.84 117.734 58.8323C117.718 58.8323 117.686 58.8323 117.639 58.8323C117.639 58.7549 117.647 58.6852 117.671 58.631C117.71 58.5149 117.789 58.422 117.891 58.3601C117.993 58.2982 118.095 58.2672 118.182 58.2749C118.237 58.2827 118.308 58.3059 118.379 58.3369C118.449 58.3756 118.504 58.4143 118.544 58.4607C118.583 58.5072 118.607 58.5768 118.615 58.662C118.63 58.7471 118.607 58.8633 118.536 59.0258C118.308 59.5135 117.82 59.7999 117.073 59.8696L117.049 59.56ZM112.998 61.6733C113.109 61.2785 113.274 60.9147 113.494 60.5818C113.722 60.2489 113.974 59.978 114.249 59.769C114.532 59.56 114.831 59.3897 115.146 59.2735C115.46 59.1574 115.775 59.0955 116.082 59.0955C116.75 59.0955 117.214 59.32 117.482 59.7767C117.749 60.2334 117.773 60.8372 117.568 61.5881C117.364 62.3313 116.978 62.9351 116.412 63.4073C115.846 63.8795 115.232 64.1117 114.579 64.1117C113.872 64.1117 113.384 63.8795 113.109 63.4228C112.841 62.9738 112.802 62.3855 112.998 61.6733ZM114.076 61.2862C113.997 61.5804 113.95 61.8591 113.927 62.1223C113.911 62.3855 113.919 62.6332 113.966 62.8577C114.013 63.0822 114.123 63.268 114.281 63.3996C114.438 63.5312 114.65 63.6008 114.91 63.6008C115.272 63.6008 115.594 63.446 115.877 63.1286C116.16 62.819 116.357 62.4551 116.475 62.0371C116.554 61.7507 116.601 61.4798 116.617 61.2088C116.64 60.9379 116.625 60.6902 116.585 60.4502C116.546 60.2102 116.444 60.0244 116.294 59.8773C116.145 59.7303 115.94 59.6606 115.689 59.6606C115.421 59.6606 115.177 59.738 114.957 59.8928C114.729 60.0477 114.548 60.2489 114.399 60.4812C114.273 60.7211 114.163 60.9921 114.076 61.2862ZM105.605 63.9724L105.778 63.5466L106.674 63.3454L108.145 57.9343L107.343 57.6402L107.524 57.2299L109.144 57.1138L109.246 57.2454L108.664 59.3897L108.421 59.9625H108.476C109.144 59.3974 109.766 59.1187 110.324 59.1187C110.529 59.1187 110.694 59.1419 110.835 59.1961C110.977 59.2426 111.087 59.3277 111.189 59.4438C111.284 59.56 111.339 59.7225 111.339 59.947C111.347 60.1638 111.307 60.4347 111.221 60.7521L110.505 63.3686L111.252 63.5621L111.071 63.9879H108.601L108.775 63.5853L109.577 63.3686L110.277 60.8527C110.371 60.5044 110.348 60.2489 110.206 60.0941C110.065 59.9393 109.86 59.8619 109.608 59.8619C109.215 59.8619 108.814 60.0244 108.421 60.3418L107.603 63.3608L108.35 63.5544L108.169 63.9879H105.605V63.9724ZM99.902 57.6711L100.091 57.2609H103.111L102.946 57.6711L101.931 57.9266L100.468 63.3144L101.444 63.5544L101.263 63.9879H98.2266L98.3917 63.5853L99.4143 63.2912L100.869 57.9576L99.902 57.6711ZM101.334 60.5895C101.444 60.5044 101.625 60.3573 101.876 60.1405C102.136 59.9238 102.317 59.7612 102.419 59.6606L104.244 57.9188L103.465 57.6634L103.622 57.2531H106.328L106.147 57.6634L105.109 57.9188L102.372 60.4425L103.221 61.89C103.544 62.4397 103.796 62.8267 103.984 63.0435C104.165 63.2602 104.409 63.4228 104.708 63.5234L104.889 63.5931L104.732 63.9646C104.48 64.0421 104.228 64.0808 103.976 64.0808C103.552 64.0808 103.206 63.9492 102.93 63.686C102.655 63.4228 102.403 63.0435 102.175 62.5635L101.302 60.7056L101.334 60.5895Z" fill="black"/>
<path fill-rule="evenodd" clip-rule="evenodd" d="M125.245 38.5352C121.95 38.5352 118.851 39.1699 118.851 42.3128V50.023C118.851 53.1658 121.942 53.8006 125.245 53.8006H131.216C134.527 53.8006 137.61 53.1736 137.61 50.023V42.3128C137.61 39.1699 134.511 38.5352 131.216 38.5352H125.245ZM123.334 41.9412C123.334 41.0975 124.64 41.1052 125.411 41.1052H131.05C131.829 41.1052 133.127 41.0975 133.127 41.9412V50.3945C133.127 51.2383 131.821 51.2306 131.05 51.2306H125.411C124.632 51.2306 123.334 51.246 123.334 50.3945V41.9412ZM194.59 51.3699C194.59 53.1039 195.077 53.8006 197.768 53.8006H208.583C208.551 51.9427 207.678 51.2306 204.776 51.2306H199.168V47.6C201.842 47.3213 207.442 48.916 207.647 44.3487C206.695 45.4015 200.576 43.2185 199.168 45.866V41.1052H204.776C207.686 41.1052 208.551 40.393 208.583 38.5352H197.768C195.093 38.5352 194.59 39.2319 194.59 40.9659V51.3699ZM218.006 51.3699C218.006 53.0962 218.494 53.8006 221.184 53.8006H231.999C231.968 51.9427 231.095 51.2306 228.192 51.2306H222.584V47.6C225.258 47.3213 230.851 48.916 231.063 44.3487C230.111 45.4015 223.992 43.2185 222.584 45.866V41.1052H228.192C231.103 41.1052 231.968 40.393 231.999 38.5352H221.184C218.51 38.5352 218.006 39.2319 218.006 40.9659V51.3699ZM171.166 53.8006H175.743V47.5922C178.418 47.3136 184.018 48.9082 184.223 44.341C183.271 45.3938 177.151 43.2108 175.743 45.8582V41.1052H181.352C184.262 41.1052 185.127 40.393 185.159 38.5352H174.343C171.661 38.5352 171.166 39.2319 171.166 40.9659V53.8006ZM147.702 53.8006H152.28V47.5922C154.954 47.3136 160.555 48.9082 160.759 44.341C159.807 45.3938 153.688 43.2108 152.28 45.8582V41.1052H157.888C160.799 41.1052 161.664 40.393 161.695 38.5352H150.88C148.198 38.5352 147.702 39.2319 147.702 40.9659V53.8006ZM102.71 41.9412C102.71 41.0975 104.008 41.1052 104.787 41.1052H108.106C111.016 41.1052 111.882 40.393 111.913 38.5352H104.614C101.31 38.5352 98.2188 39.1699 98.2188 42.3128V50.023C98.2188 53.1658 101.31 53.8006 104.614 53.8006H111.905C111.874 51.9427 111.001 51.2306 108.098 51.2306H104.779C104.008 51.2306 102.702 51.246 102.702 50.3945V41.9412H102.71Z" fill="#7B2800"/>
<path fill-rule="evenodd" clip-rule="evenodd" d="M103.74 29.2074V24.555H110.308C111.771 24.555 112.078 25.7084 112.078 26.8696C112.07 28.0307 111.74 29.2074 110.308 29.2074H103.74ZM121.486 13.7949V32.6057H127.031V13.7949H121.486ZM132.749 13.7949V32.6057H138.295V21.5282L144.8 30.9569C145.563 32.0639 147.27 32.6057 148.701 32.6057H151.58V13.7949H146.035V24.8724L139.357 15.2037C138.79 14.3832 137.618 13.7949 136.556 13.7949H132.749ZM157.377 13.7949V32.6057H162.922V13.7949H157.377ZM177.238 24.5627H172.463C168.004 24.5627 166.619 21.8688 166.643 19.1749C166.666 16.481 168.09 13.7871 172.463 13.7871H183.759C183.782 14.1509 184.215 17.1777 179.936 17.1777H173.919C172.487 17.1777 172.212 18.1995 172.227 19.2214C172.243 20.2432 172.558 21.265 173.919 21.265H179.291C183.727 21.265 185.182 24.0983 185.167 26.9315C185.151 29.7647 183.672 32.598 179.023 32.598H166.753C166.729 32.2342 166.281 29.2074 170.576 29.2074H177.254C178.906 29.2074 179.33 28.0462 179.33 26.8851C179.315 25.7239 178.89 24.5627 177.238 24.5627ZM201.763 13.7949V28.201C201.763 29.2461 200.701 29.2074 199.828 29.2074H196.879C195.998 29.2074 194.944 29.2384 194.944 28.201V13.7949H189.398V27.9533C189.398 31.8316 192.073 32.6057 195.817 32.6057H200.882C204.626 32.6057 207.301 31.8316 207.301 27.9533V13.7949H201.763ZM213.177 13.7949V32.6057H218.722V21.5282L225.227 30.9569C225.99 32.0639 227.697 32.6057 229.128 32.6057H232.007V13.7949H226.462V24.8724L219.784 15.2037C219.217 14.3832 218.053 13.7949 216.984 13.7949H213.177ZM103.74 17.1855H110.308C111.724 17.1855 112.055 18.1841 112.078 19.1981C112.102 20.2277 111.795 21.2728 110.308 21.2728H103.74V17.1855ZM98.2188 32.598H111.984C115.972 32.598 117.663 29.8189 117.71 27.156C117.742 25.2981 116.782 23.4945 114.776 22.7281H114.572C116.404 21.9849 117.309 20.1348 117.159 18.3157C116.971 16.0398 115.531 13.7949 111.779 13.7949H98.2188V32.598Z" fill="#007A5E"/>
</g>
<defs>
<clipPath id="clip0_28786_578">
<rect width="232" height="72" fill="white"/>
</clipPath>
</defs>
</svg>
